<svg enable-background="new 0 0 1298 245" viewBox="0 0 1298 245" xmlns="http://www.w3.org/2000/svg"><g transform="translate(.75)"><path d="m220.3 122.6c0-19.1-5.5-37.9-16-53.9l38.7-38.9-29-29.2-38.7 38.9c-32.6-21.4-74.8-21.4-107.4 0l-38.8-38.9-29.1 29.2 38.7 38.9c-21.3 32.8-21.3 75.1 0 107.9l-38.7 38.8 29.1 29.2 38.7-38.9c32.6 21.4 74.8 21.4 107.4 0l38.7 38.9 29.1-29.2-38.7-38.9c10.5-16 16.1-34.7 16-53.9zm-156.4 0c0-23.6 14.2-44.9 36-53.7s46.8-3.5 63.1 13.5 20.7 42.3 11 63.8l-38-38.2-29 29.2 38 38.2c-17.8 8-38.5 6.5-54.9-4.2-16.3-10.7-26.2-29-26.2-48.6z" fill="#052892"/><path d="m429.6 123.8c0 23.9-12 45.4-33.5 55.3l11.4 14.9-23.5 11.9-15.7-20.9h-.5c-38.8 0-61.7-28.3-61.7-61.3s22.9-61.3 61.7-61.3 61.8 28.4 61.8 61.4zm-61.7 37.2c21.9 0 33.8-17.1 33.8-37.3s-11.9-37.3-33.8-37.3c-22.1 0-34 17.1-33.8 37.3-.2 20.3 11.7 37.3 33.8 37.3zm104.9 22.9c-19.1 0-29.4-11.9-29.4-32.6v-49.4h25.6v43.7c0 10.9 3.6 16.9 13.2 16.9 10.7 0 15.3-7 15.3-17.7v-42.9h25.1v79.8h-25.1v-11.4c-4.4 8.5-12.6 13.6-24.7 13.6zm102.5 0c-23.8 0-37.5-18.1-37.5-42.1 0-23.9 14.7-42.1 37.8-42.1 11.6 0 20.6 5.5 24.9 13.6v-11.4h25.1v79.8h-25.1v-11.3c-4.2 8-14.1 13.5-25.2 13.5zm7.3-21c12.5 0 19-9.4 19-21 0-11.4-6.4-20.9-19-20.9-11.7 0-19 8.8-19 20.9 0 12 7.3 21 19 21zm64-61h25.3v11.6c4.6-8.9 13.7-13.7 25.7-13.7 19.3 0 29 10.9 29 32.6v49.4h-25.4v-41.1c0-13.4-3.8-19.5-14-19.5-10.1 0-15.3 6.6-15.3 18.9v41.7h-25.3zm141.9 60.1c3.1 0 6.4-.2 8.7-.5v20.2c-3.6.7-9.6 1.3-16.8 1.3-11.9 0-28.2-2.7-28.2-29.3v-31.8h-12.5v-20h12.5v-23.7h25.3v23.7h18v20h-18v26.5c0 11.8 4.8 13.6 11 13.6zm55.2 22.2c-23.3 0-37.6-11.4-37.6-26.5h25.1c0 5.5 5.3 9.4 13 9.4 5.4 0 9.2-2.8 9.2-7.5 0-3.1-1.5-5.8-5.8-6.8l-19.5-5c-13.2-3.3-20-11.6-20-23 0-14.9 13-25.3 34-25.3 23.3 0 35.5 9.8 35.5 24.8h-24.9c0-5.6-4.1-8.8-10.9-8.8-5.4 0-9.1 2.7-9.1 6.6 0 3.6 2.5 6 6.8 7.1l18.8 5.1c12.2 3.3 20.1 10.8 20.1 22.2.1 16.6-13 27.7-34.7 27.7zm92.2-22.2c3.1 0 6.4-.2 8.7-.5v20.2c-3.6.7-9.6 1.3-16.8 1.3-11.9 0-28.2-2.7-28.2-29.3v-31.8h-12.5v-20h12.5v-23.7h25.3v23.7h18v20h-18v26.5c0 11.8 4.7 13.6 11 13.6zm55 21.9c-23.8 0-37.5-18.1-37.5-42.1 0-23.9 14.7-42.1 37.8-42.1 11.6 0 20.6 5.5 24.9 13.6v-11.4h25.1v79.8h-25.1v-11.3c-4.3 8-14.2 13.5-25.2 13.5zm7.2-21c12.5 0 19-9.4 19-21 0-11.4-6.4-20.9-19-20.9-11.7 0-19 8.8-19 20.9 0 12 7.3 21 19 21zm64.1-61h25.3v11.6c3.5-8 11.7-13.7 22.8-13.7 14.2 0 21.5 6.3 24.9 14.7 4.3-8.6 13.7-14.7 25.4-14.7 22.8 0 28.2 15.7 28.2 32.5v49.5h-25.4v-44.9c0-11.1-4.1-15.7-11.9-15.7-7.9 0-13.4 4.5-13.4 19.5v41.1h-25.4v-45.1c0-11.1-4-15.6-11.7-15.6-8.1 0-13.5 4.5-13.5 19.5v41.1h-25.3zm146.5 0h25.3v11.4c4.1-7.6 14-13.6 25.9-13.6 21.8 0 36.6 16.9 36.6 42.1 0 25-15.3 42.1-37.3 42.1-11.7 0-21.3-6-25.2-13.4v44.4h-25.3zm43.2 61c11.1 0 18.8-8.6 18.8-21 0-12.3-7.8-20.9-18.8-20.9-11.4 0-19.1 8.4-19.1 20.9s7.9 21 19.1 21z" fill="#1e2837"/></g></svg>
